<svg width="417" height="405" fill="none" xmlns="http://www.w3.org/2000/svg"><path d="M218.582 223.712l-52.617 118.179c-1.194 2.683-9.502 1.592-18.955-2.375-4.915-2.309-9.076-4.95-11.662-7.314-1.551-1.419-2.58-2.787-2.827-3.867-.118-.416-.112-.838.024-1.142l.067-.151 52.617-118.179 1.042-1.659 5.642-9.132.816-1.152c4.58-1.297 10.88-.736 17.055 2.013l1.062.474a15.06 15.06 0 012.008 1.075c.101.045.202.09.281.186.585.321 1.097.67 1.608 1.019.152.068.281.186.411.304.281.186.511.349.77.586.129.118.332.208.461.326l1.079.845c.18.141.388.355.568.495l.776.71c.208.214.365.405.596.568.231.163.365.405.523.597.365.405.68.788.972 1.221.158.191.292.433.45.625.157.191.292.433.399.602.157.191.241.411.399.602.028.073.106.169.135.242.056.146.134.242.191.388l-.322 1.676-3.095 10.63-.474 1.608z" fill="#488DEF"/><path d="M209.784 215.55l-52.617 118.179c-1.194 2.683-9.502 1.591-18.955-2.375-2.053-.974-3.981-1.954-5.691-3.019-.118-.416-.112-.838.024-1.142l.067-.151 52.617-118.179 1.042-1.659 5.642-9.132.816-1.152c4.58-1.297 10.88-.736 17.055 2.013l1.062.474a15.06 15.06 0 012.008 1.075c.101.045.202.09.281.186.214.338.377.653.59.991l-.322 1.676-3.145 10.607-.474 1.608z" fill="#4F93FE"/><path d="M222.5 209.872c-1.736-3.32-5.008-6.596-9.287-9.108-1.046-.648-2.238-1.239-3.402-1.757-6.225-2.772-12.502-3.384-17.054-2.014l16.643-22.67c.563-1.265 4.225-.908 8.589.731.63.22 1.237.491 1.845.761l.253.113c5.111 2.276 8.743 5.287 8.09 6.755l-5.677 27.189z" fill="#EDEFF4"/><path d="M213.163 200.741c-1.046-.647-2.238-1.239-3.403-1.757-6.225-2.772-12.502-3.383-17.054-2.014l16.643-22.67c.563-1.265 4.225-.908 8.589.732 1.018 1.12 1.388 2.194 1.05 2.953l-5.825 22.756z" fill="#F7F9FF"/><path d="M239.21 161.579l-1.904 4.004-6.168 12.9c.721-1.62-3.248-4.964-8.894-7.538l-.304-.135c-2.53-1.127-4.943-1.837-6.895-2.221-1.023-.153-1.946-.26-2.688-.227-.99.045-1.722.325-1.947.832l.603-1.491 4.856-11.725 1.679-4.044c.744-1.67 6.11-.918 12.003 1.645l.355.158c5.949 2.71 10.048 6.172 9.304 7.842z" fill="#EDEFF4"/><path d="M229.9 154.159l-2.445 5.218-5.436 11.528-.101-.045c-2.53-1.126-4.943-1.837-6.895-2.22-1.024-.153-1.946-.261-2.689-.227-.455-.203-.837-.434-1.293-.637l4.857-11.725 1.679-4.044c.743-1.67 6.109-.918 12.003 1.645l.354.158c.079.096.011.248-.034.349zm69.723-48.584c-.884.759-54.963 50.304-54.963 50.304-1.77-2.426-5.205-5.472-9.8-7.82-.534-.299-1.091-.547-1.647-.794l-1.013-.451c-5.364-2.389-10.753-3.09-14.061-2.743 0 0 .633-73.341.606-74.505 2.094-2.525 8.299-2.976 8.299-2.976l69.187 30.803c.05.023 3.866 4.936 3.392 8.182z" fill="#F7F9FF"/><path d="M248.506 157.591l4.049 1.803-3.377 3.226-.4.49c-.625.995-1.334 1.771-2.004 2.321l-4.049-1.802c.692-.602 1.328-1.349 2.004-2.322l.4-.489 3.377-3.227zm52.511-33.627c-6.175-2.749-12.776 1.044-12.776 1.044l-4.049-1.803s6.652-3.77 12.776-1.043l4.049 1.802z" fill="#424656"/><path d="M369.232 220.014l-126.53-56.335c.692-.601 1.329-1.349 2.004-2.322l.4-.489 3.377-3.227 2.43 1.082c16.6 7.391 113.601 50.639 116.508 51.873 3.211 1.369 7.411-3.978 7.411-3.978l.716-2.834 7.637-30.501s.662-5.709-7.588-9.382-91.332-40.724-91.332-40.724 2.831-1.59 6.459-1.976c1.952-.162 4.14-.037 6.266.91l86.04 38.307s8.722 3.702 5.942 15.26c-2.471 10.18-6.571 27.154-7.993 33.071a39.78 39.78 0 01-.395 1.704c-.733 3.009-9.479 10.395-11.352 9.561z" fill="#373B49"/><path d="M380.979 208.749c-2.702 3.345-8.454 7.819-9.922 7.165l-122.481-54.532c.693-.601 1.329-1.349 2.004-2.321l.355-.388.096-.079 3.377-3.227c17.765 7.91 88.649 39.53 109.271 48.651l3.847 1.713 1.72.766c2.199.918 4.878-1.285 6.325-2.764.664-.674 1.086-1.214 1.086-1.214l8.331-33.284s.661-5.71-7.588-9.383l-3.695-1.645a766096.45 766096.45 0 01-41.046-18.275l-5.213-2.321-4.91-2.185-31.784-14.152c1.952-.161 4.14-.036 6.266.91l86.04 38.308s8.722 3.701 5.942 15.259c-2.499 10.107-6.549 27.104-8.021 32.998z" fill="#424656"/><path d="M415.174 132.764l-6.535 14.677L114.736 16.587l1.645-3.695 4.89-10.982c.541-1.215 3.01-.904 3.01-.904l289.5 128.894s1.366 1.154 1.489 2.239c.034.197-.006.422-.096.625z" fill="#373B49"/><path d="M415.27 132.139l-5.137 11.54L116.381 12.892l4.89-10.982c.541-1.215 3.01-.904 3.01-.904l289.5 128.894c.051.022 1.366 1.154 1.489 2.239z" fill="#424656"/><path d="M296.28 97.416l112.359 50.025s-3.075 5.545-9.837 5.748c-1.024-.152-100.465-44.729-100.465-44.729l1.285-2.885c.475-3.246-3.342-8.159-3.342-8.159z" fill="#488DEF"/><path d="M408.64 147.441s-3.075 5.545-9.837 5.748c-.275-.062-6.422-2.738-15.532-6.794l-15.589-6.94c-28.95-12.89-65.244-29.17-65.244-29.17l1.285-2.885c.474-3.246-3.342-8.159-3.342-8.159l108.259 48.2z" fill="#4F93FE"/><path d="M383.185 173.284l-8.33 33.284s-4.251 5.324-7.411 3.978c-3.211-1.369-118.938-52.955-118.938-52.955l35.759-34.414s83.082 37.051 91.332 40.724c8.25 3.673 7.588 9.383 7.588 9.383z" fill="#488DEF"/><path d="M374.855 206.568s-4.25 5.324-7.411 3.978l-1.721-.766-3.846-1.713-109.271-48.651 35.736-34.363a676749.873 676749.873 0 0142.565 18.951l41.046 18.275 3.695 1.645c8.25 3.673 7.588 9.382 7.588 9.382l-8.381 33.262z" fill="#4F93FE"/><path d="M298.36 108.409l-.946 2.126-13.172 12.693-35.759 34.414-3.377 3.226-.4.489c.394-.613.76-1.299 1.098-2.058.316-.708-.133-1.879-1.167-3.37 0 0 54.079-49.545 54.985-50.354l-1.262 2.834z" fill="#373B49"/><path d="M245.827 159.249a15.358 15.358 0 01-1.098 2.058 11.662 11.662 0 01-1.954 2.344c-2.746 2.355-5.446 1.881-5.446 1.881l1.904-4.004c.743-1.67-3.406-5.155-9.254-7.819l-.152-.068-.152-.067c-5.944-2.586-11.31-3.338-12.053-1.668l-1.679 4.044s-2.159-1.689-2.247-5.306c-.016-.917.086-1.964.407-3.094.192-.703.457-1.434.795-2.193.315-.709 1.485-1.158 3.286-1.388 3.307-.346 8.645.332 14.061 2.744l1.012.45c5.365 2.389 9.491 5.924 11.447 8.614 1.012 1.542 1.439 2.763 1.123 3.472z" fill="#373B49"/><path d="M234.983 149.69a15.358 15.358 0 01-1.098 2.058 11.67 11.67 0 01-1.954 2.345c-.118.129-.287.236-.456.343-.534-.299-1.091-.547-1.647-.795l-.304-.135c-.506-.225-1.063-.473-1.592-.648-5.275-2.045-9.786-2.538-10.462-1.019l-1.679 4.043s-2.159-1.689-2.246-5.306a10.54 10.54 0 01.407-3.093c.191-.703.456-1.435.794-2.194.316-.708 1.486-1.158 3.286-1.387.175.017.321-.039.495-.022 3.314-.223 8.382.517 13.493 2.793l1.013.451c.607.27 1.164.518 1.698.817.359.827.432 1.344.252 1.749z" fill="#424656"/><path d="M231.138 178.483l-2.989 4.127c.653-1.468-2.979-4.48-8.09-6.756l-.254-.112-.404-.181c-2.503-1.053-4.865-1.741-6.637-1.984-1.822-.266-3.077-.036-3.392.673l.513-2.379.553-2.604c.406-.911 2.161-1.04 4.585-.627 1.901.361 4.263 1.049 6.693 2.13l.253.113.303.135c5.618 2.501 9.588 5.845 8.866 7.465z" fill="#EDEFF4"/><path d="M212.765 173.577c1.822.266 4.134.931 6.636 1.985l1.955-3.436a4.17 4.17 0 00.332-1.429c-2.452-1.031-4.791-1.769-6.692-2.13-2.475-.435-4.202-.234-4.585.627l-.553 2.604 2.907 1.779z" fill="#F7F9FF"/><path d="M213.651 150.745S88.993 95.245 87.121 94.41c-1.873-.833-2.186-12.253-.514-14.783.186-.281.535-.793 1.003-1.434 3.445-5.015 13.316-19.42 19.228-28.068 6.706-9.75 15.316-5.795 15.316-5.795l22.471 10.005 63.569 28.302c2.126.947 3.705 2.438 4.869 4.048 2.085 2.808 2.814 5.801 2.853 6.122l-63.113-28.1-28.241-12.574c-8.25-3.673-12.05.64-12.05.64L94.978 78.805l-1.627 2.429s-1.113 6.72 2.003 8.169c2.862 1.335 99.857 44.459 116.508 51.873l2.43 1.081-.138 4.669-.074.574c-.293 1.203-.446 2.227-.429 3.144.022-.051.022-.051 0 0z" fill="#373B49"/><path d="M211.405 144.893L88.924 90.361c-1.468-.653-1.992-7.921-1.314-12.168a20914.97 20914.97 0 0019.228-28.068c6.706-9.75 15.316-5.795 15.316-5.795l22.471 10.005 63.569 28.302c2.126.947 3.705 2.438 4.869 4.048l-16.753-7.459-11.337-5.047-30.316-13.498-28.242-12.574c-8.25-3.673-12.05.639-12.05.639l-19.16 28.462s-.12.675-.176 1.62l-1.627 2.429s-1.113 6.721 2.002 8.17c2.863 1.334 99.858 44.458 116.509 51.872l-.028.473c-.344 1.181-.497 2.204-.48 3.121.022-.05.022-.05 0 0zm2.938-2.512l1.647-49.602.597-18.231.946-2.126 1.284-2.885c.028 1.165-.628 74.556-.628 74.556-1.778.179-2.97.679-3.286 1.387-.338.76-.603 1.491-.794 2.194l.073-.574.161-4.719z" fill="#424656"/><path d="M214.342 142.381c-.911-.406-115.772-51.485-118.887-52.932-3.166-1.47-2.003-8.17-2.003-8.17l19.161-28.461s3.8-4.313 12.05-.64l28.241 12.574 63.113 28.1-1.675 49.529z" fill="#488DEF"/><path d="M210.294 140.578l-7.44-3.312c-25.204-11.222-84.392-37.514-102.286-45.541l-3.543-1.578-1.62-.72c-3.166-1.471-2.003-8.17-2.003-8.17l19.162-28.462s3.799-4.312 12.049-.639l28.242 12.574 30.316 13.498 11.337 5.047 17.36 7.73-1.574 49.573z" fill="#4F93FE"/><path d="M299.623 105.575c-.884.758-54.963 50.303-54.963 50.303-1.77-2.425-5.205-5.471-9.8-7.819l39.759-60.288 21.662 9.645s3.816 4.913 3.342 8.159z" fill="#EDEFF4"/><path d="M114.735 16.587l112.359 50.025s-6.205.452-8.299 2.976l-1.285 2.885s-64.772-28.596-90.286-40.077c-6.174-2.749-9.998-4.512-10.178-4.653-4.373-5.161-2.311-11.156-2.311-11.156z" fill="#4F93FE"/><path d="M222.128 211.525l.322-1.676 5.699-27.239c.653-1.468-2.979-4.48-8.09-6.756l-.203-.09c-5.112-2.276-9.78-2.959-10.434-1.492l-16.643 22.67-.816 1.153" stroke="#424656" stroke-miterlimit="10" stroke-linecap="round" stroke-linejoin="round"/><path d="M209.372 174.25l1.066-4.983c.406-.911 2.161-1.04 4.585-.627 1.974.333 4.365 1.094 6.895 2.22l.152.068.152.068m-86.823 161.228c-2.148-1.987-3.244-3.748-2.855-5.031l.068-.151 4.71-10.578 47.907-107.601 1.041-1.659 5.643-9.132m30.215 13.453l-3.095 10.629-.451 1.558-51.716 116.155" stroke="#424656" stroke-miterlimit="10" stroke-linecap="round" stroke-linejoin="round"/><path d="M221.991 170.832l.152.068.152.067c5.646 2.575 9.615 5.919 8.894 7.538" stroke="#424656" stroke-miterlimit="10" stroke-linecap="round" stroke-linejoin="round"/><path d="M229.653 153.624l.152.068.152.067c5.899 2.688 9.998 6.15 9.254 7.82l-1.904 4.004-6.168 12.9-2.99 4.127" stroke="#424656" stroke-miterlimit="10" stroke-linecap="round" stroke-linejoin="round"/><path d="M229.906 153.737l-.152-.068-.152-.067c-5.944-2.586-11.31-3.338-12.054-1.668l-1.679 4.044-5.459 13.216" stroke="#424656" stroke-miterlimit="10" stroke-linecap="round" stroke-linejoin="round"/><path d="M215.898 156.051s-2.159-1.689-2.247-5.306c-.016-.917.086-1.963.407-3.094.192-.703.457-1.434.795-2.193.315-.709 1.486-1.158 3.286-1.387 3.308-.347 8.645.332 14.061 2.743l1.012.451c5.365 2.388 9.492 5.923 11.447 8.614 1.057 1.44 1.484 2.661 1.168 3.37a15.358 15.358 0 01-1.098 2.058 11.629 11.629 0 01-1.954 2.344c-2.746 2.355-5.446 1.881-5.446 1.881" stroke="#424656" stroke-miterlimit="10" stroke-linecap="round" stroke-linejoin="round"/><path d="M298.36 108.409l-.946 2.126-48.908 47.056-3.377 3.227-.4.489m-26.54-17.214s.633-73.34.628-74.555c2.094-2.525 8.299-2.976 8.299-2.976l34.062 15.165 35.125 15.638s3.816 4.914 3.341 8.159c-.883.759-54.985 50.355-54.985 50.355" stroke="#424656" stroke-miterlimit="10" stroke-linecap="round" stroke-linejoin="round"/><path d="M242.775 163.651l126.53 56.335c1.873.834 10.569-6.574 11.33-9.51.711-2.959 5.629-23.268 8.387-34.775 2.759-11.508-5.941-15.26-5.941-15.26l-86.04-38.307c-6.175-2.749-12.776 1.043-12.776 1.043s83.083 37.051 91.332 40.724c8.25 3.674 7.588 9.383 7.588 9.383l-8.33 33.284s-4.251 5.324-7.411 3.978c-3.211-1.369-118.938-52.955-118.938-52.955m51.117-52.016l-1.285 2.885s99.441 44.577 100.465 44.729c6.761-.203 9.836-5.748 9.836-5.748l6.535-14.677c.541-1.215-1.342-2.842-1.342-2.842L269.183 65.52 124.281 1.006s-2.469-.311-3.01.904l-6.535 14.677s-2.063 5.995 2.31 11.156c.18.141 4.004 1.904 10.179 4.653 25.514 11.481 90.286 40.077 90.286 40.077" stroke="#424656" stroke-miterlimit="10" stroke-linecap="round" stroke-linejoin="round"/><path d="M218.795 69.588l-1.285 2.885-.946 2.126-.574 18.18-1.625 49.551m-.691 8.364L87.144 94.36c-1.872-.834-2.186-12.254-.513-14.784 1.723-2.507 13.524-19.752 20.23-29.502 6.706-9.75 15.316-5.795 15.316-5.795l22.472 10.005 63.568 28.303c5.972 2.659 7.627 9.702 7.745 10.119l-63.113-28.1-28.241-12.574c-8.25-3.673-12.05.639-12.05.639L93.397 81.133s-1.113 6.722 2.003 8.17c3.115 1.447 117.976 52.526 118.887 52.931l-.138 4.669-.073.574m-99.341-130.89l112.359 50.025 34.062 15.165 35.124 15.639 112.359 50.025" stroke="#424656" stroke-miterlimit="10" stroke-linecap="round" stroke-linejoin="round"/><path d="M192.841 196.666l-.174-.017c.742-.033 1.429-.213 2.143-.319a8.46 8.46 0 011.086-.123c.371-.017.692-.056 1.063-.072 1.435-.09 2.903.018 4.326.227 2.868.368 5.658 1.185 8.34 2.38 2.632 1.171 5.202 2.619 7.417 4.454 2.288 1.807 4.295 3.974 5.7 6.54.056.147.039.321-.107.377-.147.056-.321.039-.377-.107-1.303-2.521-3.26-4.666-5.475-6.501s-4.712-3.31-7.315-4.409a31.282 31.282 0 00-8.217-2.385c-1.423-.209-2.841-.294-4.275-.205-.371.016-.743.033-1.063.072a8.44 8.44 0 00-1.086.123c-.715.107-1.378.236-2.059.539-.073.028-.124.005-.124.005l-.051-.022c-.151-.068-.208-.214-.14-.366.068-.152.236-.258.388-.191z" fill="#424656"/><path d="M166.866 339.867l-.901 2.024c-1.194 2.683-9.502 1.592-18.905-2.352l1.215.541-2.48-1.105 1.215.541c-4.915-2.309-9.076-4.95-11.662-7.315" stroke="#424656" stroke-miterlimit="10" stroke-linecap="round" stroke-linejoin="round"/><path d="M138.007 326.229c2.728.002 5.473.375 8.133 1.075 2.66.699 5.23 1.601 7.761 2.727a41.2 41.2 0 017.153 4.094c2.254 1.611 4.368 3.401 6.054 5.607.079.096.062.27-.056.399-.119.13-.27.062-.4-.056-1.658-2.133-3.698-3.951-5.903-5.539-2.204-1.588-4.571-2.945-7.028-4.1a44.7 44.7 0 00-7.666-2.806c-2.609-.677-5.309-1.151-8.037-1.153-.051-.023-.051-.023-.079-.096-.005-.123.017-.174.068-.152z" fill="#424656"/></svg>