<svg width="60" height="60" fill="none" xmlns="http://www.w3.org/2000/svg"><path fill-rule="evenodd" clip-rule="evenodd" d="M12.8 2h34.4c2.273 0 3.858.002 5.091.102 1.21.1 1.906.284 2.433.552a6 6 0 012.622 2.622c.268.527.453 1.222.552 2.432.1 1.234.102 2.819.102 5.092v34.4c0 2.273-.002 3.858-.102 5.091-.1 1.21-.284 1.906-.552 2.433a6 6 0 01-2.622 2.622c-.527.268-1.222.453-2.432.552-1.234.1-2.819.102-5.092.102H12.8c-2.273 0-3.858-.002-5.092-.102-1.21-.1-1.905-.284-2.432-.552a6 6 0 01-2.622-2.622c-.268-.527-.453-1.222-.552-2.432C2.002 51.057 2 49.472 2 47.2V12.8c0-2.273.002-3.858.102-5.092.1-1.21.284-1.905.552-2.432a6 6 0 012.622-2.622c.527-.268 1.222-.453 2.432-.552C8.942 2.002 10.527 2 12.8 2zM0 12.8c0-4.48 0-6.72.872-8.432A8 8 0 014.368.872C6.08 0 8.32 0 12.8 0h34.4c4.48 0 6.72 0 8.432.872a8 8 0 013.496 3.496C60 6.08 60 8.32 60 12.8v34.4c0 4.48 0 6.72-.872 8.432a8 8 0 01-3.496 3.496C53.92 60 51.68 60 47.2 60H12.8c-4.48 0-6.72 0-8.432-.872a8 8 0 01-3.496-3.496C0 53.92 0 51.68 0 47.2V12.8zm38.178 6.109a2.1 2.1 0 112.334 3.493 2.1 2.1 0 01-2.334-3.493zm8.412-.371a13.3 13.3 0 01.805 4.252c.105 1.855.105 2.45.105 7.21 0 2.93-.04 4.282-.07 5.322a56.03 56.03 0 00-.035 1.888 13.3 13.3 0 01-.805 4.252 8.488 8.488 0 01-2.03 3.098 8.225 8.225 0 01-3.098 2.012c-1.36.515-2.798.793-4.252.823-1.855.105-2.45.105-7.21.105s-5.355 0-7.21-.105a12.775 12.775 0 01-4.252-.823 8.4 8.4 0 01-3.098-2.012 8.225 8.225 0 01-2.012-3.098 12.775 12.775 0 01-.823-4.252C12.5 35.355 12.5 34.76 12.5 30s0-5.355.105-7.21c.03-1.454.308-2.892.822-4.252a8.225 8.225 0 012.013-3.098 8.4 8.4 0 013.098-2.012 12.775 12.775 0 014.252-.823c1.855-.105 2.45-.105 7.21-.105s5.355 0 7.21.105c1.454.03 2.892.308 4.252.822a8.225 8.225 0 013.098 2.013 8.576 8.576 0 012.03 3.098zm-2.94 21.717A9.8 9.8 0 0044.245 37c.088-1.75.105-2.398.105-7s-.017-5.25-.105-7a9.8 9.8 0 00-.595-3.325 5.425 5.425 0 00-1.313-1.925 5.354 5.354 0 00-2.082-1.4A9.8 9.8 0 0037 15.755c-1.75-.105-2.398-.105-7-.105-2.847 0-4.18.04-5.198.07-.627.02-1.134.035-1.802.035a9.976 9.976 0 00-3.325.595 5.425 5.425 0 00-1.925 1.4 5.25 5.25 0 00-1.383 1.925A9.624 9.624 0 0015.755 23c-.105 1.75-.105 2.398-.105 7 0 2.847.04 4.18.07 5.198.02.627.035 1.135.035 1.802a9.624 9.624 0 00.7 3.325 5.25 5.25 0 001.295 2.012c.546.564 1.2 1.01 1.925 1.313a9.974 9.974 0 003.395.525c1.75.105 2.398.105 7 .105s5.25-.017 7-.105a9.8 9.8 0 003.255-.595 5.599 5.599 0 002.012-1.313 5.355 5.355 0 001.313-2.012zM25.017 22.544A8.978 8.978 0 0130 21.023 8.96 8.96 0 0138.995 30a8.978 8.978 0 11-13.978-7.456zm1.745 12.301a5.828 5.828 0 106.476-9.69 5.828 5.828 0 00-6.476 9.69z" fill="#F7F9FF"/></svg>