<svg width="60" height="60" fill="none" xmlns="http://www.w3.org/2000/svg"><path fill-rule="evenodd" clip-rule="evenodd" d="M52 2H8a6 6 0 00-6 6v44a6 6 0 006 6h44a6 6 0 006-6V8a6 6 0 00-6-6zM8 0a8 8 0 00-8 8v44a8 8 0 008 8h44a8 8 0 008-8V8a8 8 0 00-8-8H8z" fill="#424656"/><path d="M30.524 13c-2.608 0-5.693 2.497-8.264 6.72C19.616 24.092 18 29.49 18 34.192 18 41.059 21.856 48 30.487 48c8.63 0 12.487-6.941 12.487-13.809 0-4.701-1.58-10.1-4.224-14.47C36.216 15.497 33.131 13 30.524 13z" fill="#424656"/></svg>