<svg width="60" height="60" fill="none" xmlns="http://www.w3.org/2000/svg"><path fill-rule="evenodd" clip-rule="evenodd" d="M12.8 2h34.4c2.273 0 3.858.002 5.091.102 1.21.1 1.906.284 2.433.552a6 6 0 012.622 2.622c.268.527.453 1.222.552 2.432.1 1.234.102 2.819.102 5.092v34.4c0 2.273-.002 3.858-.102 5.091-.1 1.21-.284 1.906-.552 2.433a6 6 0 01-2.622 2.622c-.527.268-1.222.453-2.432.552-1.234.1-2.819.102-5.092.102H12.8c-2.273 0-3.858-.002-5.092-.102-1.21-.1-1.905-.284-2.432-.552a6 6 0 01-2.622-2.622c-.268-.527-.453-1.222-.552-2.432C2.002 51.057 2 49.472 2 47.2V12.8c0-2.273.002-3.858.102-5.092.1-1.21.284-1.905.552-2.432a6 6 0 012.622-2.622c.527-.268 1.222-.453 2.432-.552C8.942 2.002 10.527 2 12.8 2zM0 12.8c0-4.48 0-6.72.872-8.432A8 8 0 014.368.872C6.08 0 8.32 0 12.8 0h34.4c4.48 0 6.72 0 8.432.872a8 8 0 013.496 3.496C60 6.08 60 8.32 60 12.8v34.4c0 4.48 0 6.72-.872 8.432a8 8 0 01-3.496 3.496C53.92 60 51.68 60 47.2 60H12.8c-4.48 0-6.72 0-8.432-.872a8 8 0 01-3.496-3.496C0 53.92 0 51.68 0 47.2V12.8zm40.071 27.926L44.49 20.04c.423-1.832-.66-2.491-1.928-2.115L16.801 27.939c-1.787.657-1.787 1.645-.33 2.115l6.63 2.021 15.372-9.683c.658-.424 1.315-.236.8.281L26.907 33.908l-.517 6.818c.752 0 1.082-.33 1.41-.66l3.245-3.101 6.628 4.888c1.222.658 2.068.33 2.397-1.127z" fill="#F7F9FF"/></svg>