<svg width="60" height="60" fill="none" xmlns="http://www.w3.org/2000/svg"><path fill-rule="evenodd" clip-rule="evenodd" d="M12.8 2h34.4c2.273 0 3.858.002 5.091.102 1.21.1 1.906.284 2.433.552a6 6 0 012.622 2.622c.268.527.453 1.222.552 2.432.1 1.234.102 2.819.102 5.092v34.4c0 2.273-.002 3.858-.102 5.091-.1 1.21-.284 1.906-.552 2.433a6 6 0 01-2.622 2.622c-.527.268-1.222.453-2.432.552-1.234.1-2.819.102-5.092.102H12.8c-2.273 0-3.858-.002-5.092-.102-1.21-.1-1.905-.284-2.432-.552a6 6 0 01-2.622-2.622c-.268-.527-.453-1.222-.552-2.432C2.002 51.057 2 49.472 2 47.2V12.8c0-2.273.002-3.858.102-5.092.1-1.21.284-1.905.552-2.432a6 6 0 012.622-2.622c.527-.268 1.222-.453 2.432-.552C8.942 2.002 10.527 2 12.8 2zM0 12.8c0-4.48 0-6.72.872-8.432A8 8 0 014.368.872C6.08 0 8.32 0 12.8 0h34.4c4.48 0 6.72 0 8.432.872a8 8 0 013.496 3.496C60 6.08 60 8.32 60 12.8v34.4c0 4.48 0 6.72-.872 8.432a8 8 0 01-3.496 3.496C53.92 60 51.68 60 47.2 60H12.8c-4.48 0-6.72 0-8.432-.872a8 8 0 01-3.496-3.496C0 53.92 0 51.68 0 47.2V12.8zm30.983-.275c7.825.033 11.34 2.588 12.207 3.382 2.891 2.51 4.492 8.056 3.407 16.848-.945 7.752-6.348 9.128-8.165 9.59a7.69 7.69 0 00-.425.116l.218-.047a31.785 31.785 0 01-10.642.813 109.7 109.7 0 01-2.037 2.303c-.18.194-.348.385-.509.567-.812.923-1.435 1.631-2.382 1.334-.94-.287-.885-1.716-.885-1.716l.007-3.527h-.007c-8.21-2.315-8.098-10.833-7.997-15.378.1-4.544.976-8.208 3.478-10.71 4.498-4.128 13.732-3.575 13.732-3.575zM37.5 39.878c1.544-.36 5.843-1.36 6.64-7.765.918-7.332-.326-12.337-2.767-14.43-.738-.67-3.909-2.665-10.533-2.693 0 0-7.84-.512-11.648 2.94-2.119 2.09-2.83 5.205-2.912 8.994l-.008.375c-.091 3.874-.253 10.732 6.475 12.597 0 0-.028 5.388-.028 5.859-.007.721.39.75.752.389 1.1-1.106 4.611-5.339 4.661-5.398.665.045 1.336.067 2.014.067 2.469 0 4.866-.303 6.954-.834.094-.03.23-.062.4-.101zm-9.368.867l-.093-.006.093.007zm6.515-14.134v-.02l-.001.01a2.97 2.97 0 00-2.964-3.172l-.1.002h-.024a.443.443 0 00-.03.885h.004a2.115 2.115 0 012.23 2.317.443.443 0 00.885-.022zm-3.794-4.668c3.438.254 5.25 2.523 5.18 5.421v-.004.012a.443.443 0 00.884.012l-.001.015a5.987 5.987 0 00-5.977-6.339h-.023a.443.443 0 10-.063.884zm8.389 6.341v-.002l-.003-.002c-.041-5.998-4.095-9.479-9.138-9.514a.441.441 0 100 .884c4.504.032 8.22 3.066 8.255 8.639a.444.444 0 00.886-.005zM38.476 35v-.013l-.003-.003-.003.004a1.215 1.215 0 00-.256-1.618l.016.014a17.81 17.81 0 00-3.145-2.258l.005.003a1.429 1.429 0 00-1.824.249l-.656.82a1.21 1.21 0 01-.956.36l-.061-.017a8.602 8.602 0 01-5.701-5.746v.005a1.196 1.196 0 01.361-.961l.82-.656.001-.002a1.423 1.423 0 00.252-1.816 20.421 20.421 0 00-1.038-1.626c-.363-.5-1.21-1.51-1.21-1.51l-.001-.004a1.24 1.24 0 00-1.633-.263h-.014c-1.306.737-2.733 2.118-2.275 3.54l.043.143a19.98 19.98 0 001.74 3.664l.058.115a21.877 21.877 0 002.044 3.07l.028.037a18.081 18.081 0 002.87 2.862l-.059-.044a26.247 26.247 0 007.044 3.906l.013.02c1.422.459 2.802-.976 3.54-2.275z" fill="#F7F9FF"/></svg>