<svg width="417" height="405" viewBox="0 0 417 405" fill="none" xmlns="http://www.w3.org/2000/svg">
<path d="M218.582 223.712L165.965 341.891C164.771 344.574 156.463 343.483 147.01 339.516C142.095 337.207 137.934 334.566 135.348 332.202C133.797 330.783 132.768 329.415 132.521 328.335C132.403 327.919 132.409 327.497 132.545 327.193C132.567 327.143 132.59 327.092 132.612 327.042L185.229 208.863L186.271 207.204L191.913 198.072L192.729 196.92C197.309 195.623 203.609 196.184 209.784 198.933C210.138 199.091 210.492 199.249 210.846 199.407C211.555 199.722 212.241 200.088 212.854 200.482C212.955 200.527 213.056 200.572 213.135 200.668C213.72 200.989 214.232 201.338 214.743 201.687C214.895 201.755 215.024 201.873 215.154 201.991C215.435 202.177 215.665 202.34 215.924 202.577C216.053 202.695 216.256 202.785 216.385 202.903C216.745 203.185 217.105 203.466 217.464 203.748C217.644 203.889 217.852 204.103 218.032 204.243C218.291 204.48 218.55 204.716 218.808 204.953C219.016 205.167 219.173 205.358 219.404 205.521C219.635 205.684 219.769 205.926 219.927 206.118C220.292 206.523 220.607 206.906 220.899 207.339C221.057 207.53 221.191 207.772 221.349 207.964C221.506 208.155 221.641 208.397 221.748 208.566C221.905 208.757 221.989 208.977 222.147 209.168C222.175 209.241 222.253 209.337 222.282 209.41C222.338 209.556 222.416 209.652 222.473 209.798L222.151 211.474L219.056 222.104L218.582 223.712Z" fill="#488DEF"/>
<path d="M209.784 215.55L157.167 333.729C155.973 336.412 147.665 335.32 138.212 331.354C136.159 330.38 134.231 329.4 132.521 328.335C132.403 327.919 132.409 327.497 132.545 327.193C132.567 327.143 132.59 327.092 132.612 327.042L185.229 208.863L186.271 207.204L191.913 198.072L192.729 196.92C197.309 195.623 203.609 196.184 209.784 198.933C210.138 199.091 210.492 199.249 210.846 199.407C211.555 199.722 212.241 200.088 212.854 200.482C212.955 200.527 213.056 200.572 213.135 200.668C213.349 201.006 213.512 201.321 213.725 201.659L213.403 203.335L210.258 213.942L209.784 215.55Z" fill="#4F93FE"/>
<path d="M222.5 209.872C220.764 206.552 217.492 203.276 213.213 200.764C212.167 200.116 210.975 199.525 209.811 199.007C203.586 196.235 197.309 195.623 192.757 196.993L209.4 174.323C209.963 173.058 213.625 173.415 217.989 175.054C218.619 175.274 219.226 175.545 219.834 175.815L220.087 175.928C225.198 178.204 228.83 181.215 228.177 182.683L222.5 209.872Z" fill="#EDEFF4"/>
<path d="M213.163 200.741C212.117 200.094 210.925 199.502 209.76 198.984C203.535 196.212 197.258 195.601 192.706 196.97L209.349 174.3C209.912 173.035 213.574 173.392 217.938 175.032C218.956 176.152 219.326 177.226 218.988 177.985L213.163 200.741Z" fill="#F7F9FF"/>
<path d="M239.21 161.579L237.306 165.583L231.138 178.483C231.859 176.863 227.89 173.519 222.244 170.945L221.94 170.81C219.41 169.683 216.997 168.973 215.045 168.589C214.022 168.436 213.099 168.329 212.357 168.362C211.367 168.407 210.635 168.687 210.41 169.194L211.013 167.703L215.869 155.978L217.548 151.934C218.292 150.264 223.658 151.016 229.551 153.579L229.906 153.737C235.855 156.447 239.954 159.909 239.21 161.579Z" fill="#EDEFF4"/>
<path d="M229.9 154.159L227.455 159.377L222.019 170.905L221.918 170.86C219.388 169.734 216.975 169.023 215.023 168.64C213.999 168.487 213.077 168.379 212.334 168.413C211.879 168.21 211.497 167.979 211.041 167.776L215.898 156.051L217.577 152.007C218.32 150.337 223.686 151.089 229.58 153.652L229.934 153.81C230.013 153.906 229.945 154.058 229.9 154.159Z" fill="#F7F9FF"/>
<path d="M299.623 105.575C298.739 106.334 244.66 155.879 244.66 155.879C242.89 153.453 239.455 150.407 234.86 148.059C234.326 147.76 233.769 147.512 233.213 147.265L232.2 146.814C226.836 144.425 221.447 143.724 218.139 144.071C218.139 144.071 218.772 70.73 218.745 69.5656C220.839 67.0413 227.044 66.5897 227.044 66.5897L296.231 97.3935C296.281 97.416 300.097 102.329 299.623 105.575Z" fill="#F7F9FF"/>
<path d="M248.506 157.591C248.506 157.591 249.974 158.245 252.555 159.394L249.178 162.62L248.778 163.11C248.153 164.105 247.444 164.881 246.774 165.431C244.193 164.282 242.725 163.629 242.725 163.629C243.417 163.027 244.053 162.28 244.729 161.307L245.129 160.818L248.506 157.591Z" fill="#424656"/>
<path d="M301.017 123.964C294.842 121.215 288.241 125.008 288.241 125.008C285.66 123.859 284.192 123.205 284.192 123.205C284.192 123.205 290.844 119.435 296.968 122.162L301.017 123.964Z" fill="#424656"/>
<path d="M369.232 220.014C367.359 219.18 242.702 163.679 242.702 163.679C243.394 163.078 244.031 162.33 244.706 161.357L245.106 160.868L248.483 157.641C248.483 157.641 249.344 158.025 250.913 158.723C267.513 166.114 364.514 209.362 367.421 210.596C370.632 211.965 374.832 206.618 374.832 206.618L375.548 203.784L383.185 173.283C383.185 173.283 383.847 167.574 375.597 163.901C367.347 160.228 284.265 123.177 284.265 123.177C284.265 123.177 287.096 121.587 290.724 121.201C292.676 121.039 294.864 121.164 296.99 122.111C303.165 124.86 383.03 160.418 383.03 160.418C383.03 160.418 391.752 164.12 388.972 175.678C386.501 185.858 382.401 202.832 380.979 208.749C380.815 209.525 380.669 210.127 380.584 210.453C379.851 213.462 371.105 220.848 369.232 220.014Z" fill="#373B49"/>
<path d="M380.979 208.749C378.277 212.094 372.525 216.568 371.057 215.914L248.576 161.382C249.269 160.781 249.905 160.033 250.58 159.061L250.935 158.673L251.031 158.594L254.408 155.367C272.173 163.277 343.057 194.897 363.679 204.018C365.299 204.739 366.615 205.325 367.526 205.731C368.487 206.159 369.095 206.429 369.246 206.497C371.445 207.415 374.124 205.212 375.571 203.733C376.235 203.059 376.657 202.519 376.657 202.519L384.988 169.235C384.988 169.235 385.649 163.525 377.4 159.852C376.691 159.537 375.426 158.974 373.705 158.207C366.063 154.805 349.411 147.391 332.659 139.932C330.938 139.166 329.167 138.378 327.446 137.611L322.536 135.426C309.276 129.522 297.129 124.114 290.752 121.274C292.704 121.113 294.892 121.238 297.018 122.184C303.193 124.933 383.058 160.492 383.058 160.492C383.058 160.492 391.78 164.193 389 175.751C386.501 185.858 382.451 202.855 380.979 208.749Z" fill="#424656"/>
<path d="M415.174 132.764C414.633 133.978 408.639 147.441 408.639 147.441L114.736 16.587C114.736 16.587 115.434 15.018 116.381 12.8923L121.271 1.90951C121.812 0.69482 124.281 1.00582 124.281 1.00582L413.781 129.9C413.781 129.9 415.147 131.054 415.27 132.139C415.304 132.336 415.264 132.561 415.174 132.764Z" fill="#373B49"/>
<path d="M415.27 132.139C413.332 136.492 410.133 143.679 410.133 143.679L116.381 12.8923L121.271 1.90951C121.812 0.69482 124.281 1.00582 124.281 1.00582L413.781 129.9C413.832 129.922 415.147 131.054 415.27 132.139Z" fill="#424656"/>
<path d="M296.28 97.416L408.639 147.441C408.639 147.441 405.564 152.986 398.802 153.189C397.778 153.037 298.337 108.46 298.337 108.46L299.622 105.575C300.097 102.329 296.28 97.416 296.28 97.416Z" fill="#488DEF"/>
<path d="M408.64 147.441C408.64 147.441 405.565 152.986 398.803 153.189C398.528 153.127 392.381 150.451 383.271 146.395C378.716 144.367 373.351 141.979 367.682 139.455C338.732 126.565 302.438 110.285 302.438 110.285L303.723 107.4C304.197 104.154 300.381 99.2412 300.381 99.2412L408.64 147.441Z" fill="#4F93FE"/>
<path d="M383.185 173.284L374.855 206.568C374.855 206.568 370.604 211.892 367.444 210.546C364.233 209.177 248.506 157.591 248.506 157.591L284.265 123.177C284.265 123.177 367.347 160.228 375.597 163.901C383.847 167.574 383.185 173.284 383.185 173.284Z" fill="#488DEF"/>
<path d="M374.855 206.568C374.855 206.568 370.605 211.892 367.444 210.546C367.242 210.456 366.685 210.208 365.723 209.78C364.762 209.351 363.496 208.788 361.877 208.067C341.227 198.873 270.37 167.326 252.606 159.416L288.342 125.053C294.517 127.802 307.069 133.39 320.785 139.497C324.125 140.984 327.516 142.494 330.907 144.004C347.66 151.463 364.311 158.876 371.953 162.279C373.674 163.045 374.939 163.608 375.648 163.924C383.898 167.597 383.236 173.306 383.236 173.306L374.855 206.568Z" fill="#4F93FE"/>
<path d="M298.36 108.409L297.414 110.535L284.242 123.228L248.483 157.642L245.106 160.868L244.706 161.357C245.1 160.744 245.466 160.058 245.804 159.299C246.12 158.591 245.671 157.42 244.637 155.929C244.637 155.929 298.716 106.384 299.622 105.575L298.36 108.409Z" fill="#373B49"/>
<path d="M245.827 159.249C245.489 160.008 245.123 160.694 244.729 161.307C244.104 162.302 243.394 163.078 242.775 163.651C240.029 166.006 237.329 165.532 237.329 165.532L239.233 161.528C239.976 159.858 235.827 156.373 229.979 153.709C229.928 153.686 229.878 153.664 229.827 153.641C229.776 153.619 229.726 153.596 229.675 153.574C223.731 150.988 218.365 150.236 217.622 151.906L215.943 155.95C215.943 155.95 213.784 154.261 213.696 150.644C213.68 149.727 213.782 148.68 214.103 147.55C214.295 146.847 214.56 146.116 214.898 145.357C215.213 144.648 216.383 144.199 218.184 143.969C221.491 143.623 226.829 144.301 232.245 146.713L233.257 147.163C238.622 149.552 242.748 153.087 244.704 155.777C245.716 157.319 246.143 158.54 245.827 159.249Z" fill="#373B49"/>
<path d="M234.983 149.69C234.645 150.449 234.279 151.135 233.885 151.748C233.26 152.744 232.55 153.519 231.931 154.093C231.813 154.222 231.644 154.329 231.475 154.436C230.941 154.137 230.384 153.889 229.828 153.641L229.524 153.506C229.018 153.281 228.461 153.033 227.932 152.858C222.657 150.813 218.146 150.32 217.47 151.839L215.791 155.882C215.791 155.882 213.632 154.193 213.545 150.576C213.528 149.659 213.63 148.613 213.952 147.483C214.143 146.78 214.408 146.048 214.746 145.289C215.062 144.581 216.232 144.131 218.032 143.902C218.207 143.919 218.353 143.863 218.527 143.88C221.841 143.657 226.909 144.397 232.02 146.673L233.033 147.124C233.64 147.394 234.197 147.642 234.731 147.941C235.09 148.768 235.163 149.285 234.983 149.69Z" fill="#424656"/>
<path d="M231.138 178.483L228.149 182.61C228.802 181.142 225.17 178.13 220.059 175.854L219.805 175.742C219.654 175.674 219.552 175.629 219.401 175.561C216.898 174.508 214.536 173.82 212.764 173.577C210.942 173.311 209.687 173.541 209.372 174.25L209.885 171.871L210.438 169.267C210.844 168.356 212.599 168.227 215.023 168.64C216.924 169.001 219.286 169.689 221.716 170.77C221.817 170.815 221.868 170.838 221.969 170.883L222.272 171.018C227.89 173.519 231.86 176.863 231.138 178.483Z" fill="#EDEFF4"/>
<path d="M212.765 173.577C214.587 173.843 216.899 174.508 219.401 175.562L221.356 172.126C221.558 171.67 221.66 171.17 221.688 170.697C219.236 169.666 216.897 168.928 214.996 168.567C212.521 168.132 210.794 168.333 210.411 169.194L209.858 171.798L212.765 173.577Z" fill="#F7F9FF"/>
<path d="M213.651 150.745C213.651 150.745 88.9935 95.2441 87.1208 94.4103C85.2482 93.5766 84.935 82.1572 86.6074 79.627C86.7932 79.3458 87.1423 78.8342 87.6096 78.1932C91.0555 73.1778 100.926 58.7725 106.838 50.1249C113.544 40.3752 122.154 44.3297 122.154 44.3297C122.154 44.3297 131.77 48.6111 144.625 54.3348L208.194 82.6373C210.32 83.5837 211.899 85.0754 213.063 86.685C215.148 89.4933 215.877 92.4864 215.916 92.8071C215.916 92.8071 179.779 76.7179 152.803 64.7073C138.834 58.488 127.345 53.3728 124.562 52.1334C116.312 48.4604 112.512 52.7724 112.512 52.7724L94.9782 78.8056L93.3509 81.2346C93.3509 81.2346 92.2383 87.9559 95.3538 89.4037C98.2161 90.7387 195.211 133.863 211.862 141.277L214.292 142.358L214.154 147.027L214.08 147.601C213.787 148.804 213.634 149.828 213.651 150.745C213.673 150.694 213.673 150.694 213.651 150.745Z" fill="#373B49"/>
<path d="M211.405 144.893L88.9236 90.3613C87.4559 89.7078 86.9319 82.4397 87.6097 78.1931C91.0556 73.1777 100.926 58.7724 106.838 50.1248C113.544 40.3751 122.154 44.3296 122.154 44.3296C122.154 44.3296 131.77 48.611 144.625 54.3347L208.194 82.6372C210.32 83.5836 211.899 85.0753 213.063 86.6849C209.216 84.9723 203.295 82.3359 196.31 79.2262C192.767 77.6488 188.921 75.9362 184.973 74.1786C175.053 69.762 164.273 64.9622 154.657 60.6808C140.688 54.4615 129.199 49.3463 126.415 48.1069C118.165 44.4339 114.365 48.7459 114.365 48.7459L95.2043 77.2081C95.2043 77.2081 95.0858 77.883 95.0289 78.828L93.4016 81.257C93.4016 81.257 92.2891 87.9784 95.4045 89.4261C98.2668 90.7611 195.262 133.885 211.913 141.299L211.885 141.772C211.541 142.953 211.388 143.976 211.405 144.893C211.427 144.843 211.427 144.843 211.405 144.893Z" fill="#424656"/>
<path d="M214.343 142.381L215.99 92.7788L216.587 74.5479L217.533 72.4222L218.817 69.5374C218.845 70.7018 218.189 144.093 218.189 144.093C216.411 144.272 215.219 144.772 214.903 145.48C214.565 146.24 214.3 146.971 214.109 147.674L214.182 147.1L214.343 142.381Z" fill="#424656"/>
<path d="M214.342 142.381C213.431 141.975 98.5704 90.8964 95.455 89.4487C92.289 87.9784 93.4522 81.2796 93.4522 81.2796L112.613 52.8175C112.613 52.8175 116.413 48.5054 124.663 52.1785C127.497 53.4403 138.986 58.5555 152.904 64.7524C179.881 76.7629 216.017 92.8521 216.017 92.8521L214.342 142.381Z" fill="#488DEF"/>
<path d="M210.294 140.578C210.142 140.511 207.409 139.294 202.854 137.266C177.65 126.044 118.462 99.7523 100.568 91.7247C99.0999 91.0712 97.8852 90.5304 97.0248 90.1473C96.1644 89.7642 95.6077 89.5164 95.4052 89.4262C92.2392 87.956 93.4024 81.2572 93.4024 81.2572L112.564 52.795C112.564 52.795 116.363 48.483 124.613 52.156C127.447 53.4179 138.936 58.5331 152.855 64.7299C162.471 69.0113 173.251 73.8111 183.171 78.2277C187.119 79.9853 190.965 81.6979 194.508 83.2753C201.898 86.5652 208.072 89.3144 211.868 91.0044L210.294 140.578Z" fill="#4F93FE"/>
<path d="M299.623 105.575C298.739 106.333 244.66 155.878 244.66 155.878C242.89 153.453 239.455 150.407 234.86 148.059L274.619 87.7714L296.281 97.4159C296.281 97.4159 300.097 102.329 299.623 105.575Z" fill="#EDEFF4"/>
<path d="M114.735 16.5869L227.094 66.6121C227.094 66.6121 220.889 67.0637 218.795 69.5881L217.51 72.4729C217.51 72.4729 152.738 43.8771 127.224 32.3962C121.05 29.6471 117.226 27.8839 117.046 27.7432C112.673 22.582 114.735 16.5869 114.735 16.5869Z" fill="#4F93FE"/>
<path d="M222.128 211.525L222.45 209.849L228.149 182.61C228.802 181.142 225.17 178.13 220.059 175.854L219.856 175.764C214.744 173.488 210.076 172.805 209.422 174.272L192.779 196.942L191.963 198.095" stroke="#424656" stroke-miterlimit="10" stroke-linecap="round" stroke-linejoin="round"/>
<path d="M209.372 174.25L210.438 169.267C210.844 168.356 212.599 168.227 215.023 168.64C216.997 168.973 219.388 169.734 221.918 170.86C221.969 170.883 222.019 170.905 222.07 170.928C222.121 170.951 222.171 170.973 222.222 170.996" stroke="#424656" stroke-miterlimit="10" stroke-linecap="round" stroke-linejoin="round"/>
<path d="M135.399 332.224C133.251 330.237 132.155 328.476 132.544 327.193C132.567 327.143 132.589 327.092 132.612 327.042L137.322 316.464L185.229 208.863L186.27 207.204L191.913 198.072" stroke="#424656" stroke-miterlimit="10" stroke-linecap="round" stroke-linejoin="round"/>
<path d="M222.128 211.525L219.033 222.154L218.582 223.712L166.866 339.867" stroke="#424656" stroke-miterlimit="10" stroke-linecap="round" stroke-linejoin="round"/>
<path d="M221.991 170.832C222.042 170.855 222.092 170.877 222.143 170.9C222.194 170.922 222.244 170.945 222.295 170.967C227.941 173.542 231.91 176.886 231.189 178.505" stroke="#424656" stroke-miterlimit="10" stroke-linecap="round" stroke-linejoin="round"/>
<path d="M229.653 153.624C229.704 153.647 229.755 153.669 229.805 153.692C229.856 153.714 229.906 153.737 229.957 153.759C235.856 156.447 239.955 159.909 239.211 161.579L237.307 165.583L231.139 178.483L228.149 182.61" stroke="#424656" stroke-miterlimit="10" stroke-linecap="round" stroke-linejoin="round"/>
<path d="M229.906 153.737C229.855 153.714 229.804 153.692 229.754 153.669C229.703 153.647 229.653 153.624 229.602 153.602C223.658 151.016 218.292 150.264 217.548 151.934L215.869 155.978L210.41 169.194" stroke="#424656" stroke-miterlimit="10" stroke-linecap="round" stroke-linejoin="round"/>
<path d="M215.898 156.051C215.898 156.051 213.739 154.362 213.651 150.745C213.635 149.828 213.737 148.782 214.058 147.651C214.25 146.948 214.515 146.217 214.853 145.458C215.168 144.749 216.339 144.3 218.139 144.071C221.447 143.724 226.784 144.403 232.2 146.814L233.212 147.265C238.577 149.653 242.704 153.188 244.659 155.879C245.716 157.319 246.143 158.54 245.827 159.249C245.489 160.008 245.123 160.694 244.729 161.307C244.104 162.302 243.395 163.078 242.775 163.651C240.029 166.006 237.329 165.532 237.329 165.532" stroke="#424656" stroke-miterlimit="10" stroke-linecap="round" stroke-linejoin="round"/>
<path d="M298.36 108.409L297.414 110.535L248.506 157.591L245.129 160.818L244.729 161.307" stroke="#424656" stroke-miterlimit="10" stroke-linecap="round" stroke-linejoin="round"/>
<path d="M218.189 144.093C218.189 144.093 218.822 70.7526 218.817 69.5375C220.911 67.0132 227.116 66.5616 227.116 66.5616L261.178 81.7269L296.303 97.3654C296.303 97.3654 300.119 102.279 299.644 105.524C298.761 106.283 244.659 155.879 244.659 155.879" stroke="#424656" stroke-miterlimit="10" stroke-linecap="round" stroke-linejoin="round"/>
<path d="M242.775 163.651C242.775 163.651 367.433 219.152 369.305 219.986C371.178 220.82 379.874 213.412 380.635 210.476C381.346 207.517 386.264 187.208 389.022 175.701C391.781 164.193 383.081 160.441 383.081 160.441C383.081 160.441 303.215 124.883 297.041 122.134C290.866 119.385 284.265 123.177 284.265 123.177C284.265 123.177 367.348 160.228 375.597 163.901C383.847 167.575 383.185 173.284 383.185 173.284L374.855 206.568C374.855 206.568 370.604 211.892 367.444 210.546C364.233 209.177 248.506 157.591 248.506 157.591" stroke="#424656" stroke-miterlimit="10" stroke-linecap="round" stroke-linejoin="round"/>
<path d="M299.623 105.575L298.338 108.46C298.338 108.46 397.779 153.037 398.803 153.189C405.564 152.986 408.639 147.441 408.639 147.441C408.639 147.441 414.633 133.978 415.174 132.764C415.715 131.549 413.832 129.922 413.832 129.922L269.183 65.5203L124.281 1.00582C124.281 1.00582 121.812 0.69482 121.271 1.90951C120.73 3.12419 114.736 16.587 114.736 16.587C114.736 16.587 112.673 22.5821 117.046 27.7432C117.226 27.884 121.05 29.6472 127.225 32.3963C152.739 43.8771 217.511 72.473 217.511 72.473" stroke="#424656" stroke-miterlimit="10" stroke-linecap="round" stroke-linejoin="round"/>
<path d="M218.795 69.5879L217.51 72.4728L216.564 74.5985L215.99 92.7787L214.365 142.33" stroke="#424656" stroke-miterlimit="10" stroke-linecap="round" stroke-linejoin="round"/>
<path d="M213.674 150.694C213.674 150.694 89.0169 95.1933 87.1443 94.3595C85.2716 93.5258 84.9585 82.1064 86.6308 79.5762C88.3537 77.0685 100.155 59.8238 106.861 50.0741C113.567 40.3244 122.177 44.2789 122.177 44.2789C122.177 44.2789 131.793 48.5604 144.649 54.284C168.791 65.0326 204.219 80.8064 208.217 82.5865C214.189 85.2455 215.844 92.2894 215.962 92.7057C215.962 92.7057 179.825 76.6165 152.849 64.6059C138.88 58.3866 127.391 53.2714 124.608 52.032C116.358 48.359 112.558 52.671 112.558 52.671L93.3969 81.1332C93.3969 81.1332 92.2843 87.8546 95.3997 89.3023C98.5151 90.75 213.376 141.829 214.287 142.234L214.149 146.903L214.076 147.477" stroke="#424656" stroke-miterlimit="10" stroke-linecap="round" stroke-linejoin="round"/>
<path d="M114.735 16.5869L227.094 66.6121L261.156 81.7774L296.28 97.416L408.639 147.441" stroke="#424656" stroke-miterlimit="10" stroke-linecap="round" stroke-linejoin="round"/>
<path d="M192.841 196.666L192.667 196.649C193.409 196.616 194.096 196.436 194.81 196.33C195.204 196.263 195.525 196.224 195.896 196.207C196.267 196.19 196.588 196.151 196.959 196.135C198.394 196.045 199.862 196.153 201.285 196.362C204.153 196.73 206.943 197.547 209.625 198.742C212.257 199.913 214.827 201.361 217.042 203.196C219.33 205.003 221.337 207.17 222.742 209.736C222.798 209.883 222.781 210.057 222.635 210.113C222.488 210.169 222.314 210.152 222.258 210.006C220.955 207.485 218.998 205.34 216.783 203.505C214.568 201.67 212.071 200.195 209.468 199.096C206.836 197.924 204.097 197.129 201.251 196.711C199.828 196.502 198.41 196.417 196.976 196.506C196.605 196.522 196.233 196.539 195.913 196.578C195.541 196.595 195.221 196.634 194.827 196.701C194.112 196.808 193.449 196.937 192.768 197.24C192.695 197.268 192.644 197.245 192.644 197.245L192.593 197.223C192.442 197.155 192.385 197.009 192.453 196.857C192.521 196.705 192.689 196.599 192.841 196.666Z" fill="#424656"/>
<path d="M166.866 339.867L165.965 341.891C164.771 344.574 156.463 343.483 147.06 339.539C147.465 339.719 147.87 339.899 148.275 340.08L145.795 338.975C146.2 339.156 146.605 339.336 147.01 339.516C142.095 337.207 137.934 334.566 135.348 332.201" stroke="#424656" stroke-miterlimit="10" stroke-linecap="round" stroke-linejoin="round"/>
<path d="M138.007 326.229C140.735 326.231 143.48 326.604 146.14 327.304C148.8 328.003 151.37 328.905 153.901 330.031C156.381 331.135 158.799 332.515 161.054 334.125C163.308 335.736 165.422 337.526 167.108 339.732C167.187 339.828 167.17 340.002 167.052 340.131C166.933 340.261 166.782 340.193 166.652 340.075C164.994 337.942 162.954 336.124 160.749 334.536C158.545 332.948 156.178 331.591 153.721 330.436C151.263 329.281 148.716 328.329 146.055 327.63C143.446 326.953 140.746 326.479 138.018 326.477C137.967 326.454 137.967 326.454 137.939 326.381C137.934 326.258 137.956 326.207 138.007 326.229Z" fill="#424656"/>
</svg>
