<svg width="41" height="41" viewBox="0 0 41 41" fill="none" xmlns="http://www.w3.org/2000/svg">
<path fill-rule="evenodd" clip-rule="evenodd" d="M3.96057 1.36581C3.24398 0.649222 2.08216 0.649222 1.36557 1.36581C0.648978 2.0824 0.648977 3.24422 1.36557 3.96081L18.2333 20.8285L1.36584 37.6959C0.649255 38.4125 0.649255 39.5743 1.36585 40.2909C2.08243 41.0075 3.24426 41.0075 3.96084 40.2909L20.8283 23.4235L37.6956 40.2908C38.4122 41.0074 39.574 41.0074 40.2906 40.2908C41.0072 39.5742 41.0072 38.4124 40.2906 37.6958L23.4233 20.8285L40.2909 3.96091C41.0075 3.24432 41.0075 2.0825 40.2909 1.36591C39.5743 0.64932 38.4124 0.649319 37.6959 1.36591L20.8283 18.2335L3.96057 1.36581Z" fill="#F7F9FF"/>
</svg>
