<svg width="60" height="60" viewBox="0 0 60 60" fill="none" xmlns="http://www.w3.org/2000/svg">
<path fill-rule="evenodd" clip-rule="evenodd" d="M12.8 2H47.2C49.4732 2 51.0578 2.00156 52.2915 2.10235C53.5019 2.20124 54.1972 2.38559 54.7239 2.65396C55.8529 3.2292 56.7708 4.14708 57.346 5.27606C57.6144 5.80277 57.7988 6.49814 57.8976 7.70848C57.9984 8.94216 58 10.5268 58 12.8V47.2C58 49.4732 57.9984 51.0578 57.8976 52.2915C57.7988 53.5019 57.6144 54.1972 57.346 54.7239C56.7708 55.8529 55.8529 56.7708 54.7239 57.346C54.1972 57.6144 53.5019 57.7988 52.2915 57.8976C51.0578 57.9984 49.4732 58 47.2 58H12.8C10.5268 58 8.94216 57.9984 7.70848 57.8976C6.49814 57.7988 5.80277 57.6144 5.27606 57.346C4.14708 56.7708 3.2292 55.8529 2.65396 54.7239C2.38559 54.1972 2.20124 53.5019 2.10235 52.2915C2.00156 51.0578 2 49.4732 2 47.2V12.8C2 10.5268 2.00156 8.94216 2.10235 7.70848C2.20124 6.49814 2.38559 5.80277 2.65396 5.27606C3.2292 4.14708 4.14708 3.2292 5.27606 2.65396C5.80277 2.38559 6.49814 2.20124 7.70848 2.10235C8.94216 2.00156 10.5268 2 12.8 2ZM0 12.8C0 8.31958 0 6.07937 0.871948 4.36808C1.63893 2.86278 2.86278 1.63893 4.36808 0.871948C6.07937 0 8.31958 0 12.8 0H47.2C51.6804 0 53.9206 0 55.6319 0.871948C57.1372 1.63893 58.3611 2.86278 59.1281 4.36808C60 6.07937 60 8.31958 60 12.8V47.2C60 51.6804 60 53.9206 59.1281 55.6319C58.3611 57.1372 57.1372 58.3611 55.6319 59.1281C53.9206 60 51.6804 60 47.2 60H12.8C8.31958 60 6.07937 60 4.36808 59.1281C2.86278 58.3611 1.63893 57.1372 0.871948 55.6319C0 53.9206 0 51.6804 0 47.2V12.8ZM38.1783 18.9089C38.5236 18.6782 38.9297 18.555 39.345 18.555C39.902 18.555 40.4361 18.7762 40.8299 19.1701C41.2238 19.5639 41.445 20.098 41.445 20.655C41.445 21.0703 41.3218 21.4764 41.0911 21.8217C40.8603 22.167 40.5324 22.4362 40.1486 22.5951C39.7649 22.7541 39.3427 22.7957 38.9353 22.7146C38.528 22.6336 38.1538 22.4336 37.8601 22.1399C37.5664 21.8462 37.3664 21.472 37.2854 21.0647C37.2043 20.6573 37.2459 20.2351 37.4049 19.8514C37.5638 19.4676 37.833 19.1397 38.1783 18.9089ZM46.59 18.5375C47.0887 19.9015 47.3607 21.3381 47.395 22.79C47.5 24.645 47.5 25.24 47.5 30C47.5 32.9306 47.4602 34.2824 47.4296 35.3215C47.4105 35.9702 47.395 36.4971 47.395 37.21C47.3607 38.6619 47.0887 40.0985 46.59 41.4625C46.1496 42.6318 45.4564 43.6895 44.56 44.56C43.6934 45.457 42.6342 46.1452 41.4625 46.5725C40.1021 47.0867 38.664 47.3649 37.21 47.395C35.355 47.5 34.76 47.5 30 47.5C25.24 47.5 24.645 47.5 22.79 47.395C21.336 47.3649 19.8979 47.0867 18.5375 46.5725C17.3685 46.1398 16.3104 45.4524 15.44 44.56C14.543 43.6934 13.8548 42.6342 13.4275 41.4625C12.9133 40.1021 12.6351 38.664 12.605 37.21C12.5 35.355 12.5 34.76 12.5 30C12.5 25.24 12.5 24.645 12.605 22.79C12.6351 21.336 12.9133 19.8979 13.4275 18.5375C13.8548 17.3658 14.543 16.3066 15.44 15.44C16.3104 14.5476 17.3685 13.8602 18.5375 13.4275C19.8979 12.9133 21.336 12.6351 22.79 12.605C24.645 12.5 25.24 12.5 30 12.5C34.76 12.5 35.355 12.5 37.21 12.605C38.664 12.6351 40.1021 12.9133 41.4625 13.4275C42.6342 13.8548 43.6934 14.543 44.56 15.44C45.4542 16.3123 46.147 17.3695 46.59 18.5375ZM43.65 40.255C44.0314 39.2116 44.2326 38.1109 44.245 37C44.3325 35.25 44.35 34.6025 44.35 30C44.35 25.3975 44.3325 24.75 44.245 23C44.2406 21.8656 44.0393 20.7405 43.65 19.675C43.3571 18.9459 42.9092 18.289 42.3375 17.75C41.764 17.125 41.0503 16.6451 40.255 16.35C39.2116 15.9686 38.1109 15.7674 37 15.755C35.25 15.65 34.6025 15.65 30 15.65C27.153 15.65 25.8194 15.6902 24.802 15.7208C24.1746 15.7397 23.6675 15.755 23 15.755C21.8659 15.7629 20.7414 15.9641 19.675 16.35C18.9376 16.6684 18.2801 17.1466 17.75 17.75C17.1485 18.2779 16.6756 18.9363 16.3675 19.675C15.9687 20.7385 15.7614 21.8642 15.755 23C15.65 24.75 15.65 25.3975 15.65 30C15.65 32.847 15.6902 34.1806 15.7208 35.198C15.7397 35.8254 15.755 36.3325 15.755 37C15.7893 38.1411 16.0263 39.2669 16.455 40.325C16.726 41.0866 17.1692 41.7753 17.75 42.3375C18.2958 42.9012 18.9508 43.3478 19.675 43.65C20.7678 44.02 21.9165 44.1977 23.07 44.175C24.82 44.28 25.4675 44.28 30.07 44.28C34.6725 44.28 35.32 44.2625 37.07 44.175C38.1809 44.1626 39.2816 43.9614 40.325 43.58C41.0829 43.2933 41.7695 42.8455 42.3375 42.2675C42.9218 41.7047 43.3706 41.0166 43.65 40.255ZM25.0171 22.544C26.4912 21.5554 28.2252 21.026 30 21.0225C31.1811 21.0179 32.3514 21.2468 33.4436 21.6961C34.5359 22.1454 35.5286 22.8063 36.3645 23.6406C37.2005 24.4749 37.8632 25.4663 38.3147 26.5577C38.7661 27.6491 38.9973 28.8189 38.995 30C38.995 31.7748 38.4689 33.5098 37.4832 34.9858C36.4975 36.4618 35.0965 37.6124 33.4571 38.2924C31.8177 38.9724 30.0135 39.1512 28.2725 38.8063C26.5315 38.4613 24.9319 37.608 23.6756 36.3542C22.4194 35.1004 21.563 33.5024 21.2146 31.7621C20.8663 30.0218 21.0416 28.2173 21.7184 26.5766C22.3952 24.9358 23.5431 23.5325 25.0171 22.544ZM26.7624 34.8454C27.7207 35.4857 28.8474 35.8275 30 35.8275C30.7653 35.8275 31.5231 35.6768 32.2301 35.3839C32.9371 35.091 33.5795 34.6618 34.1207 34.1207C34.6618 33.5795 35.091 32.9371 35.3839 32.2301C35.6768 31.5231 35.8275 30.7653 35.8275 30C35.8275 28.8474 35.4857 27.7207 34.8454 26.7624C34.2051 25.8041 33.2949 25.0572 32.2301 24.6161C31.1653 24.175 29.9935 24.0596 28.8631 24.2845C27.7327 24.5093 26.6943 25.0643 25.8793 25.8793C25.0643 26.6943 24.5093 27.7327 24.2845 28.8631C24.0596 29.9935 24.175 31.1653 24.6161 32.2301C25.0572 33.2949 25.8041 34.2051 26.7624 34.8454Z" fill="#F7F9FF"/>
</svg>
