<svg width="60" height="60" viewBox="0 0 60 60" fill="none" xmlns="http://www.w3.org/2000/svg">
<path fill-rule="evenodd" clip-rule="evenodd" d="M52 2H8C4.68629 2 2 4.68629 2 8V52C2 55.3137 4.68629 58 8 58H52C55.3137 58 58 55.3137 58 52V8C58 4.68629 55.3137 2 52 2ZM8 0C3.58172 0 0 3.58172 0 8V52C0 56.4183 3.58172 60 8 60H52C56.4183 60 60 56.4183 60 52V8C60 3.58172 56.4183 0 52 0H8Z" fill="#424656"/>
<path d="M30.5236 13C27.9161 13 24.8311 15.4974 22.2602 19.7209C19.616 24.0913 18 29.49 18 34.191C18 41.0588 21.8562 48 30.4869 48C39.1175 48 42.9738 41.0588 42.9738 34.191C42.9738 29.49 41.3945 24.0913 38.7503 19.7209C36.2162 15.4974 33.1312 13 30.5236 13Z" fill="#424656"/>
</svg>
