<svg width="60" height="60" viewBox="0 0 60 60" fill="none" xmlns="http://www.w3.org/2000/svg">
<path fill-rule="evenodd" clip-rule="evenodd" d="M12.8 2H47.2C49.4732 2 51.0578 2.00156 52.2915 2.10235C53.5019 2.20124 54.1972 2.38559 54.7239 2.65396C55.8529 3.2292 56.7708 4.14708 57.346 5.27606C57.6144 5.80277 57.7988 6.49814 57.8976 7.70848C57.9984 8.94216 58 10.5268 58 12.8V47.2C58 49.4732 57.9984 51.0578 57.8976 52.2915C57.7988 53.5019 57.6144 54.1972 57.346 54.7239C56.7708 55.8529 55.8529 56.7708 54.7239 57.346C54.1972 57.6144 53.5019 57.7988 52.2915 57.8976C51.0578 57.9984 49.4732 58 47.2 58H12.8C10.5268 58 8.94216 57.9984 7.70848 57.8976C6.49814 57.7988 5.80277 57.6144 5.27606 57.346C4.14708 56.7708 3.2292 55.8529 2.65396 54.7239C2.38559 54.1972 2.20124 53.5019 2.10235 52.2915C2.00156 51.0578 2 49.4732 2 47.2V12.8C2 10.5268 2.00156 8.94216 2.10235 7.70848C2.20124 6.49814 2.38559 5.80277 2.65396 5.27606C3.2292 4.14708 4.14708 3.2292 5.27606 2.65396C5.80277 2.38559 6.49814 2.20124 7.70848 2.10235C8.94216 2.00156 10.5268 2 12.8 2ZM0 12.8C0 8.31958 0 6.07937 0.871948 4.36808C1.63893 2.86278 2.86278 1.63893 4.36808 0.871948C6.07937 0 8.31958 0 12.8 0H47.2C51.6804 0 53.9206 0 55.6319 0.871948C57.1372 1.63893 58.3611 2.86278 59.1281 4.36808C60 6.07937 60 8.31958 60 12.8V47.2C60 51.6804 60 53.9206 59.1281 55.6319C58.3611 57.1372 57.1372 58.3611 55.6319 59.1281C53.9206 60 51.6804 60 47.2 60H12.8C8.31958 60 6.07937 60 4.36808 59.1281C2.86278 58.3611 1.63893 57.1372 0.871948 55.6319C0 53.9206 0 51.6804 0 47.2V12.8ZM40.0712 40.726L44.49 20.0396C44.9129 18.2079 43.8308 17.5487 42.5621 17.925L16.8006 27.9394C15.0142 28.5956 15.0142 29.5844 16.471 30.054L23.1006 32.0752L38.4729 22.3919C39.1306 21.9675 39.7883 22.1556 39.2721 22.6733L26.9083 33.9083L26.3906 40.726C27.1431 40.726 27.4727 40.3965 27.8008 40.0669L31.0456 36.965L37.6737 41.8533C38.8958 42.511 39.7417 42.1829 40.0712 40.726Z" fill="#F7F9FF"/>
</svg>
