<svg width="60" height="44" viewBox="0 0 60 44" fill="none" xmlns="http://www.w3.org/2000/svg">
<path d="M0 2C0 0.895431 0.895431 0 2 0H58C59.1046 0 60 0.895431 60 2V2C60 3.10457 59.1046 4 58 4H2C0.895432 4 0 3.10457 0 2V2Z" fill="#F7F9FF"/>
<path d="M0 22C0 20.8954 0.895431 20 2 20H58C59.1046 20 60 20.8954 60 22V22C60 23.1046 59.1046 24 58 24H2C0.895432 24 0 23.1046 0 22V22Z" fill="#F7F9FF"/>
<path d="M0 42C0 40.8954 0.895431 40 2 40H58C59.1046 40 60 40.8954 60 42V42C60 43.1046 59.1046 44 58 44H2C0.895432 44 0 43.1046 0 42V42Z" fill="#F7F9FF"/>
</svg>
