<svg width="60" height="60" viewBox="0 0 60 60" fill="none" xmlns="http://www.w3.org/2000/svg">
<path fill-rule="evenodd" clip-rule="evenodd" d="M12.8 2H47.2C49.4732 2 51.0578 2.00156 52.2915 2.10235C53.5019 2.20124 54.1972 2.38559 54.7239 2.65396C55.8529 3.2292 56.7708 4.14708 57.346 5.27606C57.6144 5.80277 57.7988 6.49814 57.8976 7.70848C57.9984 8.94216 58 10.5268 58 12.8V47.2C58 49.4732 57.9984 51.0578 57.8976 52.2915C57.7988 53.5019 57.6144 54.1972 57.346 54.7239C56.7708 55.8529 55.8529 56.7708 54.7239 57.346C54.1972 57.6144 53.5019 57.7988 52.2915 57.8976C51.0578 57.9984 49.4732 58 47.2 58H12.8C10.5268 58 8.94216 57.9984 7.70848 57.8976C6.49814 57.7988 5.80277 57.6144 5.27606 57.346C4.14708 56.7708 3.2292 55.8529 2.65396 54.7239C2.38559 54.1972 2.20124 53.5019 2.10235 52.2915C2.00156 51.0578 2 49.4732 2 47.2V12.8C2 10.5268 2.00156 8.94216 2.10235 7.70848C2.20124 6.49814 2.38559 5.80277 2.65396 5.27606C3.2292 4.14708 4.14708 3.2292 5.27606 2.65396C5.80277 2.38559 6.49814 2.20124 7.70848 2.10235C8.94216 2.00156 10.5268 2 12.8 2ZM0 12.8C0 8.31958 0 6.07937 0.871948 4.36808C1.63893 2.86278 2.86278 1.63893 4.36808 0.871948C6.07937 0 8.31958 0 12.8 0H47.2C51.6804 0 53.9206 0 55.6319 0.871948C57.1372 1.63893 58.3611 2.86278 59.1281 4.36808C60 6.07937 60 8.31958 60 12.8V47.2C60 51.6804 60 53.9206 59.1281 55.6319C58.3611 57.1372 57.1372 58.3611 55.6319 59.1281C53.9206 60 51.6804 60 47.2 60H12.8C8.31958 60 6.07937 60 4.36808 59.1281C2.86278 58.3611 1.63893 57.1372 0.871948 55.6319C0 53.9206 0 51.6804 0 47.2V12.8ZM30.9832 12.5246C38.8084 12.5582 42.3223 15.1127 43.1898 15.9073C46.0811 18.4166 47.682 23.9629 46.5972 32.7549C45.6522 40.5074 40.2489 41.883 38.4316 42.3456C38.2525 42.3912 38.1083 42.4279 38.0065 42.461L38.2252 42.4143C34.749 43.283 31.1508 43.5575 27.583 43.2265C26.9604 43.9453 26.141 44.8872 25.5462 45.5302C25.3665 45.7235 25.1982 45.9147 25.0374 46.0975C24.2254 47.0198 23.6016 47.7284 22.6549 47.4314C21.7159 47.1442 21.7698 45.7153 21.7698 45.7153L21.7771 42.1883H21.7698C13.5597 39.873 13.6719 31.3552 13.7725 26.8105C13.8731 22.2658 14.7494 18.6017 17.2514 16.0997C21.7494 11.9721 30.9832 12.5246 30.9832 12.5246ZM37.5004 39.8778C39.0438 39.5184 43.3431 38.5171 44.1405 32.1133C45.0576 24.7809 43.8139 19.7755 41.3731 17.6832C40.6353 17.0139 37.4641 15.0179 30.8403 14.9902C30.8403 14.9902 23.0004 14.4784 19.192 17.9296C17.0735 20.0204 16.362 23.1348 16.2804 26.9242C16.2777 27.0455 16.2748 27.1704 16.2718 27.2986C16.1805 31.1728 16.0189 38.0305 22.7467 39.8963C22.7467 39.8963 22.719 45.2838 22.719 45.7547C22.7117 46.4764 23.1098 46.5056 23.4714 46.144C24.5702 45.0379 28.0825 40.8054 28.1322 40.7455C28.7969 40.7908 29.4682 40.8134 30.1463 40.8134C32.6147 40.8134 35.0117 40.5102 37.0996 39.9794C37.1944 39.9491 37.3307 39.9173 37.5004 39.8778ZM28.1322 40.7455C28.1325 40.7451 28.1327 40.7449 28.1327 40.7449L28.0394 40.7391C28.0703 40.7413 28.1012 40.7434 28.1322 40.7455ZM34.6472 26.6107V26.5903L34.6457 26.6005C34.6733 26.1944 34.6171 25.7869 34.4806 25.4034C34.3441 25.0199 34.1303 24.6686 33.8523 24.3712C33.5743 24.0738 33.2382 23.8368 32.8648 23.6747C32.4914 23.5127 32.0886 23.4291 31.6816 23.4293L31.5824 23.4307H31.581H31.5576C31.444 23.4335 31.3358 23.4799 31.2554 23.5602C31.175 23.6404 31.1284 23.7486 31.1254 23.8622C31.1225 23.9758 31.1632 24.0862 31.2393 24.1706C31.3148 24.2544 31.4194 24.3062 31.5318 24.3156C31.5307 24.3156 31.5296 24.3157 31.5285 24.3158H31.5343C31.5335 24.3157 31.5326 24.3156 31.5318 24.3156C31.836 24.2974 32.1405 24.3452 32.4245 24.4556C32.7096 24.5665 32.9672 24.738 33.1795 24.9581C33.3919 25.1782 33.554 25.4418 33.6545 25.7306C33.7551 26.0195 33.7919 26.3282 33.7622 26.6326C33.7709 26.7458 33.8227 26.8514 33.907 26.9276C33.9912 27.0037 34.1015 27.0446 34.2151 27.0418C34.3286 27.039 34.4368 26.9927 34.5172 26.9125C34.5976 26.8323 34.6441 26.7243 34.6472 26.6107ZM30.8534 21.9435C34.2914 22.1972 36.1023 24.4659 36.0338 27.3645L36.0323 27.3601V27.3718C36.0372 27.485 36.0851 27.592 36.1664 27.6709C36.2477 27.7498 36.3561 27.7946 36.4693 27.7961C36.5826 27.7976 36.6921 27.7557 36.7755 27.6789C36.8588 27.6022 36.9096 27.4965 36.9174 27.3835L36.9159 27.3995C36.964 26.585 36.8451 25.7693 36.5665 25.0024C36.2879 24.2355 35.8554 23.5337 35.2957 22.94C34.7361 22.3463 34.0609 21.8733 33.3118 21.55C32.5627 21.2267 31.7553 21.06 30.9394 21.06H30.9161C30.8568 21.0534 30.7967 21.0589 30.7396 21.0761C30.6824 21.0933 30.6293 21.1218 30.5835 21.16C30.5376 21.1982 30.5 21.2453 30.4728 21.2984C30.4455 21.3515 30.4293 21.4096 30.4251 21.4691C30.4209 21.5287 30.4287 21.5885 30.4482 21.6449C30.4676 21.7013 30.4983 21.7532 30.5382 21.7975C30.5782 21.8418 30.6268 21.8776 30.6809 21.9027C30.7351 21.9278 30.7937 21.9417 30.8534 21.9435ZM39.2415 28.2845V28.2816L39.2386 28.2802C39.1977 22.2818 35.1444 18.8015 30.1011 18.7665C29.9839 18.7665 29.8715 18.813 29.7887 18.8959C29.7058 18.9787 29.6593 19.0911 29.6593 19.2083C29.6593 19.3254 29.7058 19.4378 29.7887 19.5207C29.8715 19.6035 29.9839 19.6501 30.1011 19.6501C34.6049 19.6821 38.3214 22.7163 38.3564 28.2889C38.3635 28.4019 38.4134 28.5079 38.4961 28.5852C38.5788 28.6625 38.6879 28.7052 38.801 28.7046C38.9142 28.7041 39.0229 28.6603 39.1048 28.5821C39.1866 28.504 39.2356 28.3976 39.2415 28.2845ZM38.476 34.9988V34.9857L38.4731 34.9827L38.4702 34.9871C38.6371 34.734 38.7034 34.4276 38.6559 34.1281C38.6084 33.8286 38.4506 33.5577 38.2136 33.3687L38.2296 33.3833C37.295 32.542 36.27 31.7999 35.0846 31.1248L35.0904 31.1277C34.8058 30.9476 34.4667 30.8739 34.1329 30.9195C33.7992 30.9651 33.4923 31.1271 33.2664 31.377L32.6103 32.1964C32.4868 32.3226 32.3372 32.4202 32.172 32.4824C32.0068 32.5446 31.8299 32.57 31.6539 32.5566L31.5926 32.5405C30.2439 32.124 29.0183 31.382 28.0241 30.3799C27.0299 29.3778 26.2976 28.1464 25.8917 26.7944V26.7988C25.8768 26.6218 25.9016 26.4438 25.9641 26.2776C26.0267 26.1114 26.1255 25.9612 26.2533 25.838L27.0727 25.1818L27.0742 25.1804C27.3237 24.9559 27.4859 24.6505 27.532 24.3181C27.5782 23.9857 27.5054 23.6476 27.3264 23.3637C27.0888 22.9481 26.6295 22.2031 26.2883 21.738C25.9252 21.2379 25.0781 20.2274 25.0781 20.2274L25.0767 20.2245C24.8848 19.9872 24.612 19.829 24.3106 19.7803C24.0093 19.7316 23.7006 19.7958 23.4437 19.9606H23.4305C22.1242 20.6984 20.6967 22.0791 21.1546 23.5007L21.1983 23.6436C21.6523 24.9208 22.2351 26.1485 22.9377 27.3077L22.9961 27.4228C23.5898 28.5021 24.2736 29.5293 25.0402 30.4935L25.0679 30.5299C25.9146 31.5886 26.8776 32.5486 27.9388 33.392L27.879 33.3483C30.012 35.005 32.3879 36.3225 34.9228 37.2544L34.9359 37.2748C36.3575 37.7326 37.7382 36.2979 38.476 34.9988Z" fill="#F7F9FF"/>
</svg>
